<svg xmlns="http://www.w3.org/2000/svg" width="475" height="185" viewBox="0 0 475 185" fill="none"><style>
.label{font:12px ui-sans-serif,system-ui,-apple-system,sans-serif;fill:#57606a}
.title{font:600 15px ui-sans-serif,system-ui,-apple-system,sans-serif;fill:#24292f}
.sub{font:11px ui-sans-serif,system-ui,-apple-system,sans-serif;fill:#57606a}
</style><rect width="100%" height="100%" rx="14" fill="#ffffff"/><text class="title" x="46" y="22">gitoken · 180-day Token Heatmap</text><text class="sub" x="46" y="26">Daily token usage</text><text class="label" x="8" y="63">Mon</text><text class="label" x="8" y="93">Wed</text><text class="label" x="8" y="123">Fri</text><rect x="46" y="38" width="12" height="12" rx="2" fill="#ebedf0"><title>2025-10-12: 0 tokens</title></rect><rect x="46" y="53" width="12" height="12" rx="2" fill="#ebedf0"><title>2025-10-13: 0 tokens</title></rect><rect x="46" y="68" width="12" height="12" rx="2" fill="#ebedf0"><title>2025-10-14: 0 tokens</title></rect><rect x="46" y="83" width="12" height="12" rx="2" fill="#ebedf0"><title>2025-10-15: 0 tokens</title></rect><rect x="46" y="98" width="12" height="12" rx="2" fill="#ebedf0"><title>2025-10-16: 0 tokens</title></rect><rect x="46" y="113" width="12" height="12" rx="2" fill="#ebedf0"><title>2025-10-17: 0 tokens</title></rect><rect x="46" y="128" width="12" height="12" rx="2" fill="#ebedf0"><title>2025-10-18: 0 tokens</title></rect><rect x="61" y="38" width="12" height="12" rx="2" fill="#9be9a8"><title>2025-10-19: 1372125 tokens</title></rect><rect x="61" y="53" width="12" height="12" rx="2" fill="#9be9a8"><title>2025-10-20: 1745984 tokens</title></rect><rect x="61" y="68" width="12" height="12" rx="2" fill="#ebedf0"><title>2025-10-21: 0 tokens</title></rect><rect x="61" y="83" width="12" height="12" rx="2" fill="#ebedf0"><title>2025-10-22: 0 tokens</title></rect><rect x="61" y="98" width="12" height="12" rx="2" fill="#ebedf0"><title>2025-10-23: 0 tokens</title></rect><rect x="61" y="113" width="12" height="12" rx="2" fill="#ebedf0"><title>2025-10-24: 0 tokens</title></rect><rect x="61" y="128" width="12" height="12" rx="2" fill="#ebedf0"><title>2025-10-25: 0 tokens</title></rect><rect x="76" y="38" width="12" height="12" rx="2" fill="#ebedf0"><title>2025-10-26: 0 tokens</title></rect><rect x="76" y="53" width="12" height="12" rx="2" fill="#9be9a8"><title>2025-10-27: 8227 tokens</title></rect><rect x="76" y="68" width="12" height="12" rx="2" fill="#9be9a8"><title>2025-10-28: 2907720 tokens</title></rect><rect x="76" y="83" width="12" height="12" rx="2" fill="#ebedf0"><title>2025-10-29: 0 tokens</title></rect><rect x="76" y="98" width="12" height="12" rx="2" fill="#ebedf0"><title>2025-10-30: 0 tokens</title></rect><rect x="76" y="113" width="12" height="12" rx="2" fill="#ebedf0"><title>2025-10-31: 0 tokens</title></rect><rect x="76" y="128" width="12" height="12" rx="2" fill="#ebedf0"><title>2025-11-01: 0 tokens</title></rect><text class="label" x="91" y="18">Nov</text><rect x="91" y="38" width="12" height="12" rx="2" fill="#9be9a8"><title>2025-11-02: 3686557 tokens</title></rect><rect x="91" y="53" width="12" height="12" rx="2" fill="#ebedf0"><title>2025-11-03: 0 tokens</title></rect><rect x="91" y="68" width="12" height="12" rx="2" fill="#ebedf0"><title>2025-11-04: 0 tokens</title></rect><rect x="91" y="83" width="12" height="12" rx="2" fill="#ebedf0"><title>2025-11-05: 0 tokens</title></rect><rect x="91" y="98" width="12" height="12" rx="2" fill="#ebedf0"><title>2025-11-06: 0 tokens</title></rect><rect x="91" y="113" width="12" height="12" rx="2" fill="#ebedf0"><title>2025-11-07: 0 tokens</title></rect><rect x="91" y="128" width="12" height="12" rx="2" fill="#ebedf0"><title>2025-11-08: 0 tokens</title></rect><rect x="106" y="38" width="12" height="12" rx="2" fill="#ebedf0"><title>2025-11-09: 0 tokens</title></rect><rect x="106" y="53" width="12" height="12" rx="2" fill="#ebedf0"><title>2025-11-10: 0 tokens</title></rect><rect x="106" y="68" width="12" height="12" rx="2" fill="#9be9a8"><title>2025-11-11: 28489419 tokens</title></rect><rect x="106" y="83" width="12" height="12" rx="2" fill="#9be9a8"><title>2025-11-12: 19199906 tokens</title></rect><rect x="106" y="98" width="12" height="12" rx="2" fill="#9be9a8"><title>2025-11-13: 6962791 tokens</title></rect><rect x="106" y="113" width="12" height="12" rx="2" fill="#ebedf0"><title>2025-11-14: 0 tokens</title></rect><rect x="106" y="128" width="12" height="12" rx="2" fill="#ebedf0"><title>2025-11-15: 0 tokens</title></rect><rect x="121" y="38" width="12" height="12" rx="2" fill="#ebedf0"><title>2025-11-16: 0 tokens</title></rect><rect x="121" y="53" width="12" height="12" rx="2" fill="#9be9a8"><title>2025-11-17: 11591158 tokens</title></rect><rect x="121" y="68" width="12" height="12" rx="2" fill="#9be9a8"><title>2025-11-18: 3531666 tokens</title></rect><rect x="121" y="83" width="12" height="12" rx="2" fill="#ebedf0"><title>2025-11-19: 0 tokens</title></rect><rect x="121" y="98" width="12" height="12" rx="2" fill="#ebedf0"><title>2025-11-20: 0 tokens</title></rect><rect x="121" y="113" width="12" height="12" rx="2" fill="#ebedf0"><title>2025-11-21: 0 tokens</title></rect><rect x="121" y="128" width="12" height="12" rx="2" fill="#ebedf0"><title>2025-11-22: 0 tokens</title></rect><rect x="136" y="38" width="12" height="12" rx="2" fill="#ebedf0"><title>2025-11-23: 0 tokens</title></rect><rect x="136" y="53" width="12" height="12" rx="2" fill="#ebedf0"><title>2025-11-24: 0 tokens</title></rect><rect x="136" y="68" width="12" height="12" rx="2" fill="#ebedf0"><title>2025-11-25: 0 tokens</title></rect><rect x="136" y="83" width="12" height="12" rx="2" fill="#9be9a8"><title>2025-11-26: 5943506 tokens</title></rect><rect x="136" y="98" width="12" height="12" rx="2" fill="#ebedf0"><title>2025-11-27: 0 tokens</title></rect><rect x="136" y="113" width="12" height="12" rx="2" fill="#ebedf0"><title>2025-11-28: 0 tokens</title></rect><rect x="136" y="128" width="12" height="12" rx="2" fill="#ebedf0"><title>2025-11-29: 0 tokens</title></rect><rect x="151" y="38" width="12" height="12" rx="2" fill="#9be9a8"><title>2025-11-30: 1011283 tokens</title></rect><rect x="151" y="53" width="12" height="12" rx="2" fill="#ebedf0"><title>2025-12-01: 0 tokens</title></rect><rect x="151" y="68" width="12" height="12" rx="2" fill="#ebedf0"><title>2025-12-02: 0 tokens</title></rect><rect x="151" y="83" width="12" height="12" rx="2" fill="#9be9a8"><title>2025-12-03: 830594 tokens</title></rect><rect x="151" y="98" width="12" height="12" rx="2" fill="#ebedf0"><title>2025-12-04: 0 tokens</title></rect><rect x="151" y="113" width="12" height="12" rx="2" fill="#9be9a8"><title>2025-12-05: 14194425 tokens</title></rect><rect x="151" y="128" width="12" height="12" rx="2" fill="#9be9a8"><title>2025-12-06: 19520801 tokens</title></rect><text class="label" x="166" y="18">Dec</text><rect x="166" y="38" width="12" height="12" rx="2" fill="#ebedf0"><title>2025-12-07: 0 tokens</title></rect><rect x="166" y="53" width="12" height="12" rx="2" fill="#ebedf0"><title>2025-12-08: 0 tokens</title></rect><rect x="166" y="68" width="12" height="12" rx="2" fill="#ebedf0"><title>2025-12-09: 0 tokens</title></rect><rect x="166" y="83" width="12" height="12" rx="2" fill="#ebedf0"><title>2025-12-10: 0 tokens</title></rect><rect x="166" y="98" width="12" height="12" rx="2" fill="#ebedf0"><title>2025-12-11: 0 tokens</title></rect><rect x="166" y="113" width="12" height="12" rx="2" fill="#ebedf0"><title>2025-12-12: 0 tokens</title></rect><rect x="166" y="128" width="12" height="12" rx="2" fill="#ebedf0"><title>2025-12-13: 0 tokens</title></rect><rect x="181" y="38" width="12" height="12" rx="2" fill="#9be9a8"><title>2025-12-14: 119816 tokens</title></rect><rect x="181" y="53" width="12" height="12" rx="2" fill="#ebedf0"><title>2025-12-15: 0 tokens</title></rect><rect x="181" y="68" width="12" height="12" rx="2" fill="#ebedf0"><title>2025-12-16: 0 tokens</title></rect><rect x="181" y="83" width="12" height="12" rx="2" fill="#9be9a8"><title>2025-12-17: 6435 tokens</title></rect><rect x="181" y="98" width="12" height="12" rx="2" fill="#9be9a8"><title>2025-12-18: 237240 tokens</title></rect><rect x="181" y="113" width="12" height="12" rx="2" fill="#ebedf0"><title>2025-12-19: 0 tokens</title></rect><rect x="181" y="128" width="12" height="12" rx="2" fill="#ebedf0"><title>2025-12-20: 0 tokens</title></rect><rect x="196" y="38" width="12" height="12" rx="2" fill="#ebedf0"><title>2025-12-21: 0 tokens</title></rect><rect x="196" y="53" width="12" height="12" rx="2" fill="#9be9a8"><title>2025-12-22: 7561 tokens</title></rect><rect x="196" y="68" width="12" height="12" rx="2" fill="#ebedf0"><title>2025-12-23: 0 tokens</title></rect><rect x="196" y="83" width="12" height="12" rx="2" fill="#ebedf0"><title>2025-12-24: 0 tokens</title></rect><rect x="196" y="98" width="12" height="12" rx="2" fill="#ebedf0"><title>2025-12-25: 0 tokens</title></rect><rect x="196" y="113" width="12" height="12" rx="2" fill="#ebedf0"><title>2025-12-26: 0 tokens</title></rect><rect x="196" y="128" width="12" height="12" rx="2" fill="#ebedf0"><title>2025-12-27: 0 tokens</title></rect><rect x="211" y="38" width="12" height="12" rx="2" fill="#ebedf0"><title>2025-12-28: 0 tokens</title></rect><rect x="211" y="53" width="12" height="12" rx="2" fill="#ebedf0"><title>2025-12-29: 0 tokens</title></rect><rect x="211" y="68" width="12" height="12" rx="2" fill="#ebedf0"><title>2025-12-30: 0 tokens</title></rect><rect x="211" y="83" width="12" height="12" rx="2" fill="#ebedf0"><title>2025-12-31: 0 tokens</title></rect><rect x="211" y="98" width="12" height="12" rx="2" fill="#ebedf0"><title>2026-01-01: 0 tokens</title></rect><rect x="211" y="113" width="12" height="12" rx="2" fill="#ebedf0"><title>2026-01-02: 0 tokens</title></rect><rect x="211" y="128" width="12" height="12" rx="2" fill="#ebedf0"><title>2026-01-03: 0 tokens</title></rect><text class="label" x="226" y="18">Jan</text><rect x="226" y="38" width="12" height="12" rx="2" fill="#ebedf0"><title>2026-01-04: 0 tokens</title></rect><rect x="226" y="53" width="12" height="12" rx="2" fill="#ebedf0"><title>2026-01-05: 0 tokens</title></rect><rect x="226" y="68" width="12" height="12" rx="2" fill="#ebedf0"><title>2026-01-06: 0 tokens</title></rect><rect x="226" y="83" width="12" height="12" rx="2" fill="#ebedf0"><title>2026-01-07: 0 tokens</title></rect><rect x="226" y="98" width="12" height="12" rx="2" fill="#ebedf0"><title>2026-01-08: 0 tokens</title></rect><rect x="226" y="113" width="12" height="12" rx="2" fill="#ebedf0"><title>2026-01-09: 0 tokens</title></rect><rect x="226" y="128" width="12" height="12" rx="2" fill="#ebedf0"><title>2026-01-10: 0 tokens</title></rect><rect x="241" y="38" width="12" height="12" rx="2" fill="#ebedf0"><title>2026-01-11: 0 tokens</title></rect><rect x="241" y="53" width="12" height="12" rx="2" fill="#ebedf0"><title>2026-01-12: 0 tokens</title></rect><rect x="241" y="68" width="12" height="12" rx="2" fill="#ebedf0"><title>2026-01-13: 0 tokens</title></rect><rect x="241" y="83" width="12" height="12" rx="2" fill="#ebedf0"><title>2026-01-14: 0 tokens</title></rect><rect x="241" y="98" width="12" height="12" rx="2" fill="#ebedf0"><title>2026-01-15: 0 tokens</title></rect><rect x="241" y="113" width="12" height="12" rx="2" fill="#ebedf0"><title>2026-01-16: 0 tokens</title></rect><rect x="241" y="128" width="12" height="12" rx="2" fill="#ebedf0"><title>2026-01-17: 0 tokens</title></rect><rect x="256" y="38" width="12" height="12" rx="2" fill="#ebedf0"><title>2026-01-18: 0 tokens</title></rect><rect x="256" y="53" width="12" height="12" rx="2" fill="#ebedf0"><title>2026-01-19: 0 tokens</title></rect><rect x="256" y="68" width="12" height="12" rx="2" fill="#ebedf0"><title>2026-01-20: 0 tokens</title></rect><rect x="256" y="83" width="12" height="12" rx="2" fill="#ebedf0"><title>2026-01-21: 0 tokens</title></rect><rect x="256" y="98" width="12" height="12" rx="2" fill="#ebedf0"><title>2026-01-22: 0 tokens</title></rect><rect x="256" y="113" width="12" height="12" rx="2" fill="#ebedf0"><title>2026-01-23: 0 tokens</title></rect><rect x="256" y="128" width="12" height="12" rx="2" fill="#ebedf0"><title>2026-01-24: 0 tokens</title></rect><rect x="271" y="38" width="12" height="12" rx="2" fill="#ebedf0"><title>2026-01-25: 0 tokens</title></rect><rect x="271" y="53" width="12" height="12" rx="2" fill="#ebedf0"><title>2026-01-26: 0 tokens</title></rect><rect x="271" y="68" width="12" height="12" rx="2" fill="#ebedf0"><title>2026-01-27: 0 tokens</title></rect><rect x="271" y="83" width="12" height="12" rx="2" fill="#ebedf0"><title>2026-01-28: 0 tokens</title></rect><rect x="271" y="98" width="12" height="12" rx="2" fill="#ebedf0"><title>2026-01-29: 0 tokens</title></rect><rect x="271" y="113" width="12" height="12" rx="2" fill="#ebedf0"><title>2026-01-30: 0 tokens</title></rect><rect x="271" y="128" width="12" height="12" rx="2" fill="#ebedf0"><title>2026-01-31: 0 tokens</title></rect><text class="label" x="286" y="18">Feb</text><rect x="286" y="38" width="12" height="12" rx="2" fill="#ebedf0"><title>2026-02-01: 0 tokens</title></rect><rect x="286" y="53" width="12" height="12" rx="2" fill="#ebedf0"><title>2026-02-02: 0 tokens</title></rect><rect x="286" y="68" width="12" height="12" rx="2" fill="#ebedf0"><title>2026-02-03: 0 tokens</title></rect><rect x="286" y="83" width="12" height="12" rx="2" fill="#ebedf0"><title>2026-02-04: 0 tokens</title></rect><rect x="286" y="98" width="12" height="12" rx="2" fill="#ebedf0"><title>2026-02-05: 0 tokens</title></rect><rect x="286" y="113" width="12" height="12" rx="2" fill="#ebedf0"><title>2026-02-06: 0 tokens</title></rect><rect x="286" y="128" width="12" height="12" rx="2" fill="#ebedf0"><title>2026-02-07: 0 tokens</title></rect><rect x="301" y="38" width="12" height="12" rx="2" fill="#ebedf0"><title>2026-02-08: 0 tokens</title></rect><rect x="301" y="53" width="12" height="12" rx="2" fill="#ebedf0"><title>2026-02-09: 0 tokens</title></rect><rect x="301" y="68" width="12" height="12" rx="2" fill="#ebedf0"><title>2026-02-10: 0 tokens</title></rect><rect x="301" y="83" width="12" height="12" rx="2" fill="#ebedf0"><title>2026-02-11: 0 tokens</title></rect><rect x="301" y="98" width="12" height="12" rx="2" fill="#ebedf0"><title>2026-02-12: 0 tokens</title></rect><rect x="301" y="113" width="12" height="12" rx="2" fill="#ebedf0"><title>2026-02-13: 0 tokens</title></rect><rect x="301" y="128" width="12" height="12" rx="2" fill="#ebedf0"><title>2026-02-14: 0 tokens</title></rect><rect x="316" y="38" width="12" height="12" rx="2" fill="#ebedf0"><title>2026-02-15: 0 tokens</title></rect><rect x="316" y="53" width="12" height="12" rx="2" fill="#ebedf0"><title>2026-02-16: 0 tokens</title></rect><rect x="316" y="68" width="12" height="12" rx="2" fill="#ebedf0"><title>2026-02-17: 0 tokens</title></rect><rect x="316" y="83" width="12" height="12" rx="2" fill="#ebedf0"><title>2026-02-18: 0 tokens</title></rect><rect x="316" y="98" width="12" height="12" rx="2" fill="#ebedf0"><title>2026-02-19: 0 tokens</title></rect><rect x="316" y="113" width="12" height="12" rx="2" fill="#ebedf0"><title>2026-02-20: 0 tokens</title></rect><rect x="316" y="128" width="12" height="12" rx="2" fill="#ebedf0"><title>2026-02-21: 0 tokens</title></rect><rect x="331" y="38" width="12" height="12" rx="2" fill="#ebedf0"><title>2026-02-22: 0 tokens</title></rect><rect x="331" y="53" width="12" height="12" rx="2" fill="#ebedf0"><title>2026-02-23: 0 tokens</title></rect><rect x="331" y="68" width="12" height="12" rx="2" fill="#ebedf0"><title>2026-02-24: 0 tokens</title></rect><rect x="331" y="83" width="12" height="12" rx="2" fill="#ebedf0"><title>2026-02-25: 0 tokens</title></rect><rect x="331" y="98" width="12" height="12" rx="2" fill="#ebedf0"><title>2026-02-26: 0 tokens</title></rect><rect x="331" y="113" width="12" height="12" rx="2" fill="#ebedf0"><title>2026-02-27: 0 tokens</title></rect><rect x="331" y="128" width="12" height="12" rx="2" fill="#ebedf0"><title>2026-02-28: 0 tokens</title></rect><text class="label" x="346" y="18">Mar</text><rect x="346" y="38" width="12" height="12" rx="2" fill="#ebedf0"><title>2026-03-01: 0 tokens</title></rect><rect x="346" y="53" width="12" height="12" rx="2" fill="#ebedf0"><title>2026-03-02: 0 tokens</title></rect><rect x="346" y="68" width="12" height="12" rx="2" fill="#ebedf0"><title>2026-03-03: 0 tokens</title></rect><rect x="346" y="83" width="12" height="12" rx="2" fill="#ebedf0"><title>2026-03-04: 0 tokens</title></rect><rect x="346" y="98" width="12" height="12" rx="2" fill="#ebedf0"><title>2026-03-05: 0 tokens</title></rect><rect x="346" y="113" width="12" height="12" rx="2" fill="#ebedf0"><title>2026-03-06: 0 tokens</title></rect><rect x="346" y="128" width="12" height="12" rx="2" fill="#ebedf0"><title>2026-03-07: 0 tokens</title></rect><rect x="361" y="38" width="12" height="12" rx="2" fill="#ebedf0"><title>2026-03-08: 0 tokens</title></rect><rect x="361" y="53" width="12" height="12" rx="2" fill="#ebedf0"><title>2026-03-09: 0 tokens</title></rect><rect x="361" y="68" width="12" height="12" rx="2" fill="#ebedf0"><title>2026-03-10: 0 tokens</title></rect><rect x="361" y="83" width="12" height="12" rx="2" fill="#ebedf0"><title>2026-03-11: 0 tokens</title></rect><rect x="361" y="98" width="12" height="12" rx="2" fill="#ebedf0"><title>2026-03-12: 0 tokens</title></rect><rect x="361" y="113" width="12" height="12" rx="2" fill="#ebedf0"><title>2026-03-13: 0 tokens</title></rect><rect x="361" y="128" width="12" height="12" rx="2" fill="#ebedf0"><title>2026-03-14: 0 tokens</title></rect><rect x="376" y="38" width="12" height="12" rx="2" fill="#ebedf0"><title>2026-03-15: 0 tokens</title></rect><rect x="376" y="53" width="12" height="12" rx="2" fill="#ebedf0"><title>2026-03-16: 0 tokens</title></rect><rect x="376" y="68" width="12" height="12" rx="2" fill="#ebedf0"><title>2026-03-17: 0 tokens</title></rect><rect x="376" y="83" width="12" height="12" rx="2" fill="#ebedf0"><title>2026-03-18: 0 tokens</title></rect><rect x="376" y="98" width="12" height="12" rx="2" fill="#ebedf0"><title>2026-03-19: 0 tokens</title></rect><rect x="376" y="113" width="12" height="12" rx="2" fill="#ebedf0"><title>2026-03-20: 0 tokens</title></rect><rect x="376" y="128" width="12" height="12" rx="2" fill="#ebedf0"><title>2026-03-21: 0 tokens</title></rect><rect x="391" y="38" width="12" height="12" rx="2" fill="#ebedf0"><title>2026-03-22: 0 tokens</title></rect><rect x="391" y="53" width="12" height="12" rx="2" fill="#ebedf0"><title>2026-03-23: 0 tokens</title></rect><rect x="391" y="68" width="12" height="12" rx="2" fill="#ebedf0"><title>2026-03-24: 0 tokens</title></rect><rect x="391" y="83" width="12" height="12" rx="2" fill="#ebedf0"><title>2026-03-25: 0 tokens</title></rect><rect x="391" y="98" width="12" height="12" rx="2" fill="#ebedf0"><title>2026-03-26: 0 tokens</title></rect><rect x="391" y="113" width="12" height="12" rx="2" fill="#ebedf0"><title>2026-03-27: 0 tokens</title></rect><rect x="391" y="128" width="12" height="12" rx="2" fill="#ebedf0"><title>2026-03-28: 0 tokens</title></rect><rect x="406" y="38" width="12" height="12" rx="2" fill="#ebedf0"><title>2026-03-29: 0 tokens</title></rect><rect x="406" y="53" width="12" height="12" rx="2" fill="#ebedf0"><title>2026-03-30: 0 tokens</title></rect><rect x="406" y="68" width="12" height="12" rx="2" fill="#ebedf0"><title>2026-03-31: 0 tokens</title></rect><rect x="406" y="83" width="12" height="12" rx="2" fill="#9be9a8"><title>2026-04-01: 3189264 tokens</title></rect><rect x="406" y="98" width="12" height="12" rx="2" fill="#9be9a8"><title>2026-04-02: 27668955 tokens</title></rect><rect x="406" y="113" width="12" height="12" rx="2" fill="#9be9a8"><title>2026-04-03: 15861247 tokens</title></rect><rect x="406" y="128" width="12" height="12" rx="2" fill="#9be9a8"><title>2026-04-04: 839973 tokens</title></rect><text class="label" x="421" y="18">Apr</text><rect x="421" y="38" width="12" height="12" rx="2" fill="#9be9a8"><title>2026-04-05: 6661888 tokens</title></rect><rect x="421" y="53" width="12" height="12" rx="2" fill="#40c463"><title>2026-04-06: 83536353 tokens</title></rect><rect x="421" y="68" width="12" height="12" rx="2" fill="#9be9a8"><title>2026-04-07: 36955109 tokens</title></rect><rect x="421" y="83" width="12" height="12" rx="2" fill="#40c463"><title>2026-04-08: 127051894 tokens</title></rect><rect x="421" y="98" width="12" height="12" rx="2" fill="#216e39"><title>2026-04-09: 245338644 tokens</title></rect><rect x="421" y="113" width="12" height="12" rx="2" fill="#9be9a8"><title>2026-04-10: 40243879 tokens</title></rect><rect x="421" y="128" width="12" height="12" rx="2" fill="#9be9a8"><title>2026-04-11: 4471766 tokens</title></rect><rect x="436" y="38" width="12" height="12" rx="2" fill="#30a14e"><title>2026-04-12: 161644742 tokens</title></rect><rect x="436" y="53" width="12" height="12" rx="2" fill="#40c463"><title>2026-04-13: 131260379 tokens</title></rect><rect x="436" y="68" width="12" height="12" rx="2" fill="#216e39"><title>2026-04-14: 270183155 tokens</title></rect><rect x="436" y="83" width="12" height="12" rx="2" fill="#9be9a8"><title>2026-04-15: 16059343 tokens</title></rect><rect x="436" y="98" width="12" height="12" rx="2" fill="#ebedf0"><title>2026-04-16: 0 tokens</title></rect><rect x="436" y="113" width="12" height="12" rx="2" fill="#ebedf0"><title>2026-04-17: 0 tokens</title></rect><rect x="436" y="128" width="12" height="12" rx="2" fill="#ebedf0"><title>2026-04-18: 0 tokens</title></rect><text class="sub" x="297" y="175">Less</text><rect x="325" y="165" width="12" height="12" rx="2" fill="#ebedf0"/><rect x="341" y="165" width="12" height="12" rx="2" fill="#9be9a8"/><rect x="357" y="165" width="12" height="12" rx="2" fill="#40c463"/><rect x="373" y="165" width="12" height="12" rx="2" fill="#30a14e"/><rect x="389" y="165" width="12" height="12" rx="2" fill="#216e39"/><text class="sub" x="409" y="175">More</text><text class="sub" x="46" y="171">180 days · 1.3B total tokens</text></svg>